<svg width="202" height="202" viewBox="0 0 202 202" fill="none" xmlns="http://www.w3.org/2000/svg">
<g id="Group 17">
<circle id="Oval Copy 3" opacity="0.202683" cx="101" cy="101" r="101" transform="matrix(0 1 1 0 0 0)" fill="url(#paint0_linear_0_9353)"/>
<g id="london_flatline 2">
<g id="london_flatline">
<path id="Path" d="M64.2012 90.9337L68.9013 86.103L64.2012 90.9337Z" fill="white"/>
<path id="Path_2" d="M64.2009 91.2037C64.131 91.2043 64.0638 91.1768 64.0141 91.1274C63.9094 91.022 63.9094 90.8513 64.0141 90.7459L68.685 85.9152C68.7894 85.8149 68.954 85.8155 69.0576 85.9165C69.1613 86.0176 69.1669 86.1829 69.0704 86.2909L64.3702 91.1215C64.3252 91.1681 64.2652 91.1972 64.2009 91.2037Z" fill="#231F20"/>
<path id="Path_3" d="M68.9013 90.9337L64.2012 86.103L68.9013 90.9337Z" fill="white"/>
<path id="Path_4" d="M68.9006 91.2037C68.8281 91.203 68.7589 91.1734 68.708 91.1215L64.037 86.2909C63.9871 86.2412 63.959 86.1736 63.959 86.103C63.959 86.0325 63.9871 85.9648 64.037 85.9152C64.1418 85.81 64.3117 85.81 64.4165 85.9152L69.1167 90.7459C69.2183 90.8525 69.2183 91.0207 69.1167 91.1274C69.0601 91.1847 68.9805 91.2128 68.9006 91.2037Z" fill="#231F20"/>
<path id="Path_5" d="M68.9014 90.9337L73.6015 86.103L68.9014 90.9337Z" fill="white"/>
<path id="Path_6" d="M68.9007 91.2037C68.8307 91.2049 68.7632 91.1774 68.7139 91.1274C68.6123 91.0207 68.6123 90.8525 68.7139 90.7459L73.3848 85.9152C73.4342 85.865 73.5015 85.8368 73.5717 85.8368C73.6419 85.8368 73.7092 85.865 73.7585 85.9152C73.81 85.964 73.8391 86.032 73.8391 86.103C73.8391 86.1741 73.81 86.2421 73.7585 86.2909L69.0876 91.1215C69.0381 91.172 68.9712 91.2014 68.9007 91.2037Z" fill="#231F20"/>
<path id="Path_7" d="M73.6015 90.9337L68.9014 86.103L73.6015 90.9337Z" fill="white"/>
<path id="Path_8" d="M73.6015 91.2037C73.529 91.203 73.4597 91.1734 73.4088 91.1215L68.7378 86.2909C68.6413 86.1829 68.6469 86.0176 68.7506 85.9165C68.8542 85.8155 69.0188 85.8149 69.1232 85.9152L73.7941 90.7459C73.8459 90.7957 73.8751 90.8646 73.8751 90.9366C73.8751 91.0087 73.8459 91.0776 73.7941 91.1274C73.7443 91.1802 73.6737 91.2081 73.6015 91.2037Z" fill="#231F20"/>
<path id="Path_9" d="M73.6006 90.9337L78.2949 86.103L73.6006 90.9337Z" fill="white"/>
<path id="Path_10" d="M73.6013 91.2037C73.531 91.2064 73.463 91.1786 73.4144 91.1274C73.3098 91.022 73.3098 90.8513 73.4144 90.7459L78.1146 85.9152C78.2209 85.8318 78.3722 85.8406 78.4683 85.9357C78.5644 86.0308 78.5754 86.1827 78.4941 86.2909L73.794 91.1215C73.7431 91.1734 73.6738 91.203 73.6013 91.2037Z" fill="#231F20"/>
<path id="Path_11" d="M78.2949 90.9337L73.6006 86.103L78.2949 90.9337Z" fill="white"/>
<path id="Path_12" d="M78.3124 91.2037C78.2414 91.2041 78.1735 91.1743 78.1256 91.1215L73.4254 86.2909C73.3441 86.1827 73.3552 86.0308 73.4512 85.9357C73.5473 85.8406 73.6987 85.8318 73.8049 85.9152L78.5051 90.7459C78.6098 90.8513 78.6098 91.022 78.5051 91.1274C78.4544 91.1789 78.3845 91.2066 78.3124 91.2037Z" fill="#231F20"/>
<path id="Path_13" d="M78.2949 90.9337L82.9951 86.103L78.2949 90.9337Z" fill="white"/>
<path id="Path_14" d="M78.3132 91.2037C78.2433 91.2043 78.1761 91.1768 78.1264 91.1274C78.0217 91.022 78.0217 90.8513 78.1264 90.7459L82.7973 85.9152C82.9017 85.8149 83.0663 85.8155 83.1699 85.9165C83.2736 86.0176 83.2792 86.1829 83.1827 86.2909L78.5117 91.1215C78.4594 91.1749 78.3877 91.2045 78.3132 91.2037Z" fill="#231F20"/>
<path id="Path_15" d="M82.9951 90.9337L78.2949 86.103L82.9951 90.9337Z" fill="white"/>
<path id="Path_16" d="M82.9837 91.2037C82.9111 91.203 82.8419 91.1734 82.791 91.1215L78.12 86.2909C78.0701 86.2412 78.042 86.1736 78.042 86.103C78.042 86.0325 78.0701 85.9648 78.12 85.9152C78.2249 85.81 78.3947 85.81 78.4995 85.9152L83.1705 90.7459C83.2721 90.8525 83.2721 91.0207 83.1705 91.1274C83.1208 91.1768 83.0535 91.2043 82.9837 91.2037Z" fill="#231F20"/>
<path id="Path_17" d="M82.9951 90.9337L87.6953 86.103L82.9951 90.9337Z" fill="white"/>
<path id="Path_18" d="M82.9837 91.2037C82.9137 91.2049 82.8462 91.1774 82.7969 91.1274C82.6953 91.0207 82.6953 90.8525 82.7969 90.7459L87.497 85.9152C87.6019 85.81 87.7717 85.81 87.8766 85.9152C87.9265 85.9648 87.9546 86.0325 87.9546 86.103C87.9546 86.1736 87.9265 86.2412 87.8766 86.2909L83.2056 91.1215C83.1478 91.1812 83.0662 91.2114 82.9837 91.2037Z" fill="#231F20"/>
<path id="Path_19" d="M87.6953 90.9337L82.9951 86.103L87.6953 90.9337Z" fill="white"/>
<path id="Path_20" d="M87.6961 91.2037C87.6236 91.203 87.5543 91.1734 87.5034 91.1215L82.8032 86.2909C82.7067 86.1829 82.7123 86.0176 82.816 85.9165C82.9196 85.8155 83.0842 85.8149 83.1886 85.9152L87.8596 90.7459C87.9642 90.8513 87.9642 91.022 87.8596 91.1274C87.8157 91.1714 87.7578 91.1984 87.6961 91.2037Z" fill="#231F20"/>
<path id="Path_21" d="M87.6953 90.9337L92.3896 86.103L87.6953 90.9337Z" fill="white"/>
<path id="Path_22" d="M87.696 91.2037C87.626 91.2049 87.5585 91.1774 87.5092 91.1274C87.4045 91.022 87.4045 90.8513 87.5092 90.7459L92.1801 85.9152C92.2864 85.8318 92.4378 85.8406 92.5338 85.9357C92.6299 86.0308 92.641 86.1827 92.5597 86.2909L87.8595 91.1215C87.8159 91.1669 87.7582 91.1959 87.696 91.2037Z" fill="#231F20"/>
<path id="Path_23" d="M92.3896 90.9337L87.6953 86.103L92.3896 90.9337Z" fill="white"/>
<path id="Path_24" d="M92.3897 91.2037C92.3189 91.2027 92.2516 91.1731 92.2028 91.1215L87.5319 86.2909C87.4506 86.1827 87.4616 86.0308 87.5577 85.9357C87.6538 85.8406 87.8051 85.8318 87.9114 85.9152L92.6115 90.7459C92.7162 90.8513 92.7162 91.022 92.6115 91.1274C92.5541 91.1873 92.4715 91.2157 92.3897 91.2037Z" fill="#231F20"/>
<path id="Path_25" d="M92.3896 90.9337L97.0898 86.103L92.3896 90.9337Z" fill="white"/>
<path id="Path_26" d="M92.3903 91.2037C92.3205 91.2043 92.2532 91.1768 92.2035 91.1274C92.0988 91.022 92.0988 90.8513 92.2035 90.7459L96.8745 85.9152C96.9788 85.8149 97.1434 85.8155 97.2471 85.9165C97.3507 86.0176 97.3564 86.1829 97.2598 86.2909L92.5597 91.1215C92.5146 91.1681 92.4547 91.1972 92.3903 91.2037Z" fill="#231F20"/>
<path id="Path_27" d="M97.0898 90.9337L92.3896 86.103L97.0898 90.9337Z" fill="white"/>
<path id="Path_28" d="M97.0901 91.2037C97.0176 91.203 96.9483 91.1734 96.8974 91.1215L92.2265 86.2909C92.1765 86.2412 92.1484 86.1736 92.1484 86.103C92.1484 86.0325 92.1765 85.9648 92.2265 85.9152C92.3313 85.81 92.5011 85.81 92.606 85.9152L97.3061 90.7459C97.4077 90.8525 97.4077 91.0207 97.3061 91.1274C97.2495 91.1847 97.1699 91.2128 97.0901 91.2037Z" fill="#231F20"/>
<path id="Path_29" d="M103.811 90.9337L108.511 86.103L103.811 90.9337Z" fill="white"/>
<path id="Path_30" d="M103.81 91.2037C103.74 91.2043 103.673 91.1768 103.623 91.1274C103.519 91.022 103.519 90.8513 103.623 90.7459L108.294 85.9152C108.399 85.8149 108.563 85.8155 108.667 85.9165C108.771 86.0176 108.776 86.1829 108.68 86.2909L104.003 91.1215C103.952 91.1734 103.883 91.203 103.81 91.2037Z" fill="#231F20"/>
<path id="Path_31" d="M108.511 90.9337L103.811 86.103L108.511 90.9337Z" fill="white"/>
<path id="Path_32" d="M108.511 91.2037C108.438 91.203 108.369 91.1734 108.318 91.1215L103.647 86.2909C103.597 86.2412 103.569 86.1736 103.569 86.103C103.569 86.0325 103.597 85.9648 103.647 85.9152C103.752 85.81 103.922 85.81 104.027 85.9152L108.727 90.7459C108.829 90.8525 108.829 91.0207 108.727 91.1274C108.671 91.1855 108.591 91.2137 108.511 91.2037Z" fill="#231F20"/>
<path id="Path_33" d="M108.511 90.9337L113.211 86.103L108.511 90.9337Z" fill="white"/>
<path id="Path_34" d="M108.511 91.2037C108.441 91.2043 108.374 91.1768 108.324 91.1274C108.223 91.0207 108.223 90.8525 108.324 90.7459L113.024 85.9152C113.129 85.81 113.299 85.81 113.404 85.9152C113.454 85.9648 113.482 86.0325 113.482 86.103C113.482 86.1736 113.454 86.2412 113.404 86.2909L108.733 91.1215C108.675 91.1812 108.594 91.2114 108.511 91.2037Z" fill="#231F20"/>
<path id="Path_35" d="M113.211 90.9337L108.511 86.103L113.211 90.9337Z" fill="white"/>
<path id="Path_36" d="M113.211 91.2037C113.138 91.203 113.069 91.1734 113.018 91.1215L108.318 86.2909C108.221 86.1829 108.227 86.0176 108.331 85.9165C108.434 85.8155 108.599 85.8149 108.703 85.9152L113.374 90.7459C113.479 90.8513 113.479 91.022 113.374 91.1274C113.33 91.1714 113.272 91.1984 113.211 91.2037Z" fill="#231F20"/>
<path id="Path_37" d="M113.211 90.9337L117.905 86.103L113.211 90.9337Z" fill="white"/>
<path id="Path_38" d="M113.211 91.2037C113.141 91.2049 113.074 91.1774 113.024 91.1274C112.923 91.0207 112.923 90.8525 113.024 90.7459L117.725 85.9152C117.831 85.8318 117.982 85.8406 118.078 85.9357C118.174 86.0308 118.185 86.1827 118.104 86.2909L113.433 91.1215C113.377 91.1844 113.294 91.2152 113.211 91.2037Z" fill="#231F20"/>
<path id="Path_39" d="M117.905 90.9337L113.211 86.103L117.905 90.9337Z" fill="white"/>
<path id="Path_40" d="M117.905 91.2037C117.835 91.2014 117.768 91.172 117.718 91.1215L113.018 86.2909C112.917 86.1862 112.917 86.0199 113.018 85.9152C113.067 85.865 113.135 85.8368 113.205 85.8368C113.275 85.8368 113.342 85.865 113.392 85.9152L118.063 90.7459C118.167 90.8513 118.167 91.022 118.063 91.1274C118.021 91.1714 117.965 91.1986 117.905 91.2037Z" fill="#231F20"/>
<path id="Path_41" d="M117.905 90.9337L122.605 86.103L117.905 90.9337Z" fill="white"/>
<path id="Path_42" d="M117.906 91.2037C117.837 91.2047 117.772 91.177 117.725 91.1274C117.673 91.0776 117.644 91.0087 117.644 90.9366C117.644 90.8646 117.673 90.7957 117.725 90.7459L122.396 85.9152C122.445 85.865 122.512 85.8368 122.582 85.8368C122.653 85.8368 122.72 85.865 122.769 85.9152C122.87 86.0199 122.87 86.1862 122.769 86.2909L118.069 91.1215C118.025 91.1669 117.968 91.1959 117.906 91.2037Z" fill="#231F20"/>
<path id="Path_43" d="M122.605 90.9337L117.905 86.103L122.605 90.9337Z" fill="white"/>
<path id="Path_44" d="M122.605 91.2037C122.534 91.2041 122.466 91.1743 122.419 91.1215L117.748 86.2909C117.696 86.2421 117.667 86.1741 117.667 86.103C117.667 86.032 117.696 85.964 117.748 85.9152C117.797 85.865 117.864 85.8368 117.934 85.8368C118.005 85.8368 118.072 85.865 118.121 85.9152L122.821 90.7459C122.923 90.8525 122.923 91.0207 122.821 91.1274C122.765 91.1855 122.685 91.2137 122.605 91.2037Z" fill="#231F20"/>
<path id="Path_45" d="M122.605 90.9337L127.306 86.103L122.605 90.9337Z" fill="white"/>
<path id="Path_46" d="M122.605 91.2037C122.535 91.2043 122.468 91.1768 122.418 91.1274C122.314 91.022 122.314 90.8513 122.418 90.7459L127.089 85.9152C127.194 85.8149 127.358 85.8155 127.462 85.9165C127.566 86.0176 127.571 86.1829 127.475 86.2909L122.775 91.1215C122.729 91.1681 122.669 91.1972 122.605 91.2037Z" fill="#231F20"/>
<path id="Path_47" d="M127.306 90.9337L122.605 86.103L127.306 90.9337Z" fill="white"/>
<path id="Path_48" d="M127.306 91.2037C127.233 91.203 127.164 91.1734 127.113 91.1215L122.442 86.2909C122.392 86.2412 122.364 86.1736 122.364 86.103C122.364 86.0325 122.392 85.9648 122.442 85.9152C122.547 85.81 122.717 85.81 122.822 85.9152L127.522 90.7459C127.624 90.8525 127.624 91.0207 127.522 91.1274C127.465 91.1847 127.386 91.2128 127.306 91.2037Z" fill="#231F20"/>
<path id="Path_49" d="M127.306 90.9337L132.006 86.103L127.306 90.9337Z" fill="white"/>
<path id="Path_50" d="M127.306 91.2037C127.236 91.2049 127.168 91.1774 127.119 91.1274C127.018 91.0207 127.018 90.8525 127.119 90.7459L131.79 85.9152C131.839 85.865 131.907 85.8368 131.977 85.8368C132.047 85.8368 132.114 85.865 132.164 85.9152C132.215 85.964 132.244 86.032 132.244 86.103C132.244 86.1741 132.215 86.2421 132.164 86.2909L127.493 91.1215C127.443 91.172 127.376 91.2014 127.306 91.2037Z" fill="#231F20"/>
<path id="Path_51" d="M132.006 90.9337L127.306 86.103L132.006 90.9337Z" fill="white"/>
<path id="Path_52" d="M132.029 91.2037C131.957 91.203 131.887 91.1734 131.837 91.1215L127.166 86.2909C127.069 86.1829 127.075 86.0176 127.178 85.9165C127.282 85.8155 127.447 85.8149 127.551 85.9152L132.222 90.7459C132.274 90.7957 132.303 90.8646 132.303 90.9366C132.303 91.0087 132.274 91.0776 132.222 91.1274C132.172 91.1802 132.101 91.2081 132.029 91.2037Z" fill="#231F20"/>
<path id="Path_53" d="M132.006 90.9337L136.7 86.103L132.006 90.9337Z" fill="white"/>
<path id="Path_54" d="M132.029 91.2037C131.959 91.2049 131.892 91.1774 131.842 91.1274C131.738 91.022 131.738 90.8513 131.842 90.7459L136.542 85.9152C136.592 85.865 136.659 85.8368 136.729 85.8368C136.799 85.8368 136.867 85.865 136.916 85.9152C137.017 86.0199 137.017 86.1862 136.916 86.2909L132.245 91.1215C132.189 91.1795 132.11 91.2096 132.029 91.2037Z" fill="#231F20"/>
<path id="Path_55" d="M136.7 90.9337L132.006 86.103L136.7 90.9337Z" fill="white"/>
<path id="Path_56" d="M136.7 91.2037C136.629 91.2041 136.561 91.1743 136.513 91.1215L131.813 86.2909C131.732 86.1827 131.743 86.0308 131.839 85.9357C131.935 85.8406 132.086 85.8318 132.193 85.9152L136.864 90.7459C136.965 90.8525 136.965 91.0207 136.864 91.1274C136.82 91.1718 136.762 91.1989 136.7 91.2037Z" fill="#231F20"/>
<path id="Path_57" d="M142.113 86.1852H58.8877C58.817 86.1868 58.7487 86.1597 58.6981 86.11C58.6476 86.0603 58.6191 85.9922 58.6191 85.9211C58.6191 85.772 58.7394 85.6511 58.8877 85.6511H142.113C142.261 85.6511 142.381 85.772 142.381 85.9211C142.381 85.9922 142.353 86.0603 142.302 86.11C142.252 86.1597 142.183 86.1868 142.113 86.1852Z" fill="#231F20"/>
<rect id="Rectangle" x="62.2744" y="132.12" width="76.4462" height="2.67065" fill="white"/>
<path id="Shape" fill-rule="evenodd" clip-rule="evenodd" d="M62.2735 135.043H138.726C138.868 135.044 138.985 134.929 138.988 134.785V132.109C138.988 131.963 138.871 131.845 138.726 131.845H62.2735C62.1284 131.845 62.0107 131.963 62.0107 132.109V134.779C62.0107 134.925 62.1284 135.043 62.2735 135.043ZM138.451 134.527H62.5479V132.39H138.451V134.527Z" fill="#231F20"/>
<path id="Path_58" d="M138.726 134.797V150.645H129.571C129.571 150.645 123.318 136.44 100.5 136.44C77.6828 136.44 71.4295 150.645 71.4295 150.645H62.2744V134.797H138.726Z" fill="white"/>
<path id="Shape_2" fill-rule="evenodd" clip-rule="evenodd" d="M129.571 150.891H138.727C138.875 150.891 138.995 150.77 138.995 150.621V134.773C138.995 134.702 138.967 134.633 138.916 134.583C138.866 134.532 138.798 134.503 138.727 134.503H62.2744C62.2032 134.503 62.1349 134.532 62.0845 134.583C62.0342 134.633 62.0059 134.702 62.0059 134.773V150.621C62.0059 150.693 62.0342 150.762 62.0845 150.812C62.1349 150.863 62.2032 150.891 62.2744 150.891H71.4295C71.5343 150.889 71.6289 150.828 71.6748 150.733C71.7331 150.592 78.1382 136.681 100.5 136.681C122.863 136.681 129.268 150.592 129.326 150.733C129.372 150.828 129.467 150.889 129.571 150.891ZM138.452 150.357H129.741V150.381C128.947 148.802 121.923 136.153 100.506 136.153C79.0899 136.153 72.0601 148.784 71.2661 150.363H62.5489V135.043H138.452V150.357Z" fill="#231F20"/>
<rect id="Rectangle_2" x="59.3486" y="90.9337" width="82.3025" height="2.44761" fill="#231F20"/>
<path id="Shape_3" fill-rule="evenodd" clip-rule="evenodd" d="M59.3251 93.6748H141.651C141.73 93.6748 141.807 93.6423 141.862 93.5847C141.917 93.5271 141.946 93.4494 141.943 93.3696V90.9337C141.943 90.7716 141.812 90.6402 141.651 90.6402H59.3251C59.1639 90.6402 59.0332 90.7716 59.0332 90.9337V93.3813C59.0332 93.5434 59.1639 93.6748 59.3251 93.6748ZM141.371 93.0878H59.6404L59.6288 91.2272H141.371V93.0878Z" fill="#231F20"/>
<path id="Path_59" d="M97.1895 84.935L100.5 82.64L103.811 84.935V90.9337H97.1895V84.935Z" fill="#E7816B"/>
<path id="Shape_4" fill-rule="evenodd" clip-rule="evenodd" d="M96.9209 90.9337C96.9209 91.0828 97.0411 91.2037 97.1895 91.2037H103.811C103.959 91.2037 104.079 91.0828 104.079 90.9337V84.935C104.079 84.8458 104.036 84.7624 103.962 84.712L100.652 82.417C100.559 82.3585 100.441 82.3585 100.348 82.417L97.0377 84.712C96.9645 84.7624 96.9208 84.8458 96.9209 84.935V90.9337ZM103.548 85.0759V90.6696H97.4522V85.0759L100.5 82.9628L103.548 85.0759Z" fill="#231F20"/>
<path id="Path_60" d="M97.1894 89.6306C97.1187 89.6322 97.0504 89.6051 96.9998 89.5554C96.9493 89.5057 96.9208 89.4376 96.9208 89.3665V83.3326C96.9053 83.2277 96.9523 83.1235 97.0409 83.066C97.1295 83.0085 97.2434 83.0085 97.332 83.066C97.4207 83.1235 97.4676 83.2277 97.4521 83.3326V89.3665C97.4521 89.5124 97.3345 89.6306 97.1894 89.6306Z" fill="#231F20"/>
<path id="Path_61" d="M103.811 89.6306C103.665 89.6306 103.548 89.5124 103.548 89.3665V83.3326C103.532 83.2277 103.579 83.1235 103.668 83.066C103.756 83.0085 103.87 83.0085 103.959 83.066C104.048 83.1235 104.095 83.2277 104.079 83.3326V89.3665C104.079 89.4376 104.051 89.5057 104 89.5554C103.95 89.6051 103.881 89.6322 103.811 89.6306Z" fill="#231F20"/>
<path id="Path_62" d="M100.5 82.91C100.353 82.9069 100.234 82.7878 100.231 82.64V80.973C100.231 80.8239 100.352 80.703 100.5 80.703C100.648 80.703 100.769 80.8239 100.769 80.973V82.64C100.765 82.7878 100.647 82.9069 100.5 82.91Z" fill="#231F20"/>
<path id="Path_63" d="M10.3212 132.109V116.431C29.0051 113.303 47.689 90.3937 47.689 90.3937L46.6614 94.9074C46.6614 94.9074 27.633 116.525 10.3096 118.538" fill="#231F20"/>
<path id="Shape_5" fill-rule="evenodd" clip-rule="evenodd" d="M10.0293 132.12C10.0293 132.283 10.16 132.414 10.3212 132.414C10.4007 132.414 10.4768 132.381 10.5319 132.324C10.587 132.266 10.6163 132.189 10.6132 132.109V118.802C27.7848 116.619 46.7022 95.3241 46.8891 95.107C46.9247 95.0719 46.9491 95.0269 46.9591 94.9778L47.9809 90.4641C48.0075 90.333 47.9459 90.1997 47.8291 90.1354C47.7057 90.0778 47.559 90.1116 47.4729 90.2176C47.4711 90.2198 47.4676 90.2241 47.4623 90.2305C46.923 90.8795 28.4585 113.104 10.2745 116.143C10.133 116.169 10.0299 116.292 10.0293 116.437V118.538V132.12ZM10.6132 118.204V116.678C26.9791 113.79 43.4326 95.7761 47.1518 91.4913L46.4045 94.7665C45.3243 95.9757 27.1192 116.055 10.6132 118.204Z" fill="#231F20"/>
<path id="Path_64" d="M15.9733 132.39C15.9026 132.39 15.8349 132.362 15.7854 132.311C15.736 132.26 15.709 132.192 15.7106 132.12V117.247C15.7302 117.115 15.8432 117.017 15.9762 117.017C16.1093 117.017 16.2223 117.115 16.2419 117.247V132.109C16.2469 132.183 16.2206 132.256 16.1694 132.309C16.1183 132.363 16.0472 132.392 15.9733 132.39Z" fill="#231F20"/>
<path id="Path_65" d="M22.0163 132.39C21.9446 132.392 21.8753 132.364 21.8246 132.313C21.7739 132.262 21.7461 132.193 21.7477 132.12V114.682C21.7673 114.55 21.8803 114.452 22.0134 114.452C22.1464 114.452 22.2594 114.55 22.279 114.682V132.109C22.2839 132.182 22.2583 132.254 22.2085 132.307C22.1587 132.36 22.0891 132.391 22.0163 132.39Z" fill="#231F20"/>
<path id="Path_66" d="M28.3279 132.39C28.2567 132.39 28.1884 132.362 28.138 132.311C28.0877 132.261 28.0594 132.192 28.0594 132.12V110.978C28.0594 110.829 28.1796 110.708 28.3279 110.708C28.4763 110.708 28.5965 110.829 28.5965 110.978V132.109C28.5997 132.182 28.5728 132.254 28.5221 132.307C28.4714 132.36 28.4012 132.39 28.3279 132.39Z" fill="#231F20"/>
<path id="Path_67" d="M34.6393 132.39C34.5686 132.39 34.5009 132.362 34.4515 132.311C34.402 132.26 34.375 132.191 34.3766 132.12V106.283C34.3962 106.15 34.5092 106.052 34.6423 106.052C34.7753 106.052 34.8884 106.15 34.9079 106.283V132.109C34.9129 132.183 34.8866 132.256 34.8355 132.309C34.7844 132.363 34.7132 132.392 34.6393 132.39Z" fill="#231F20"/>
<path id="Path_68" d="M54.7773 53.2863C54.6312 53.2863 54.5119 53.169 54.5087 53.0222V47.6926C54.5087 47.5435 54.629 47.4226 54.7773 47.4226C54.9256 47.4226 55.0459 47.5435 55.0459 47.6926V53.0222C55.0427 53.169 54.9234 53.2863 54.7773 53.2863Z" fill="#231F20"/>
<path id="Path_69" d="M54.0298 54.4309H55.5245L62.0055 81.2196H47.5488L54.0298 54.4309Z" fill="#231F20"/>
<path id="Shape_6" fill-rule="evenodd" clip-rule="evenodd" d="M47.5542 81.5072H62.0051C62.0978 81.5095 62.1863 81.4683 62.2444 81.3957C62.2988 81.326 62.3181 81.2351 62.297 81.1491L55.8219 54.3663C55.7942 54.2329 55.6772 54.1373 55.5416 54.1374H54.0294C53.8931 54.1389 53.7753 54.2332 53.7433 54.3663L47.2681 81.1491C47.247 81.2351 47.2664 81.326 47.3207 81.3957C47.3776 81.4666 47.4636 81.5077 47.5542 81.5072ZM61.6314 80.9202H47.9221L54.2571 54.7243H55.2964L61.6314 80.9202Z" fill="#231F20"/>
<rect id="Rectangle_3" x="54.0352" y="52.4235" width="1.48887" height="2.00739" fill="#231F20"/>
<path id="Shape_7" fill-rule="evenodd" clip-rule="evenodd" d="M54.0585 54.7243H55.5416C55.7028 54.7243 55.8335 54.593 55.8335 54.4309V52.4235C55.8335 52.2614 55.7028 52.13 55.5416 52.13H54.0585C53.8973 52.13 53.7666 52.2614 53.7666 52.4235V54.4309C53.7666 54.593 53.8973 54.7243 54.0585 54.7243ZM55.273 54.1374H54.3738V52.717H55.273V54.1374Z" fill="#231F20"/>
<path id="Path_70" d="M57.9356 80.3391V73.9941L54.7769 68.6528L51.6182 73.9941V80.3391H48.582V131.117H60.9718V80.3391H57.9356Z" fill="#E7816B"/>
<path id="Shape_8" fill-rule="evenodd" clip-rule="evenodd" d="M48.5879 131.387H60.9718C61.1156 131.384 61.2315 131.267 61.2346 131.123V80.345C61.2346 80.1991 61.1169 80.0809 60.9718 80.0809H58.1984V74C58.1987 73.9527 58.1866 73.9061 58.1634 73.865L55.0047 68.5237C54.9537 68.4475 54.8683 68.4018 54.7769 68.4018C54.6856 68.4018 54.6002 68.4475 54.5492 68.5237L51.3905 73.865C51.3673 73.9061 51.3552 73.9527 51.3555 74V80.075H48.5879C48.5172 80.0734 48.4489 80.1005 48.3983 80.1503C48.3478 80.2 48.3193 80.268 48.3193 80.3391V131.117C48.3193 131.266 48.4396 131.387 48.5879 131.387ZM60.7032 130.847H48.8507L48.7923 80.6091H51.5598C51.7082 80.6091 51.8284 80.4882 51.8284 80.3391V74.0646L54.7478 69.1752L57.6671 74.0646V80.3391C57.6702 80.4869 57.7887 80.606 57.9357 80.6091H60.7032V130.847Z" fill="#231F20"/>
<path id="Path_71" d="M60.9722 85.2578H48.5883C48.484 85.2734 48.3803 85.2262 48.3231 85.1371C48.266 85.048 48.266 84.9335 48.3231 84.8444C48.3803 84.7553 48.484 84.7081 48.5883 84.7237H60.9722C61.1039 84.7434 61.2013 84.857 61.2013 84.9908C61.2013 85.1245 61.1039 85.2382 60.9722 85.2578Z" fill="#231F20"/>
<path id="Path_72" d="M52.5878 94.9367H50.6318V88.5741C50.6318 88.0283 51.6127 87.1478 51.6127 87.1478C51.6127 87.1478 52.5878 88.0283 52.5878 88.5741V94.9367Z" fill="#231F20"/>
<path id="Path_73" d="M55.7577 94.9367H53.79V88.5741C53.79 88.0283 54.7709 87.1478 54.7709 87.1478C54.7709 87.1478 55.7518 88.0283 55.7518 88.5741L55.7577 94.9367Z" fill="#231F20"/>
<path id="Path_74" d="M58.9228 94.9367H56.9668V88.5741C56.9668 88.0283 57.9419 87.1478 57.9419 87.1478C57.9419 87.1478 58.9228 88.0283 58.9228 88.5741V94.9367Z" fill="#231F20"/>
<path id="Path_75" d="M52.5878 106.87H50.6318V100.478C50.6318 99.9376 51.6127 99.0513 51.6127 99.0513C51.6127 99.0513 52.5878 99.9376 52.5878 100.478V106.87Z" fill="#231F20"/>
<path id="Path_76" d="M55.7577 106.87H53.79V100.478C53.79 99.9376 54.7709 99.0513 54.7709 99.0513C54.7709 99.0513 55.7518 99.9376 55.7518 100.478L55.7577 106.87Z" fill="#231F20"/>
<path id="Path_77" d="M58.9228 106.87H56.9668V100.478C56.9668 99.9376 57.9419 99.0513 57.9419 99.0513C57.9419 99.0513 58.9228 99.9376 58.9228 100.478V106.87Z" fill="#231F20"/>
<path id="Path_78" d="M52.5878 118.755H50.6318V112.387C50.6318 111.841 51.6127 110.961 51.6127 110.961C51.6127 110.961 52.5878 111.841 52.5878 112.387V118.755Z" fill="#231F20"/>
<path id="Path_79" d="M55.7577 118.755H53.79V112.387C53.79 111.841 54.7709 110.961 54.7709 110.961C54.7709 110.961 55.7518 111.841 55.7518 112.387L55.7577 118.755Z" fill="#231F20"/>
<path id="Path_80" d="M58.9228 118.755H56.9668V112.387C56.9668 111.841 57.9419 110.961 57.9419 110.961C57.9419 110.961 58.9228 111.841 58.9228 112.387V118.755Z" fill="#231F20"/>
<path id="Path_81" d="M60.5287 122.271H49.0264C48.8803 122.271 48.761 122.154 48.7578 122.007C48.7609 121.859 48.8794 121.74 49.0264 121.737H60.5287C60.6757 121.74 60.7941 121.859 60.7972 122.007C60.7941 122.154 60.6747 122.271 60.5287 122.271Z" fill="#231F20"/>
<path id="Path_82" d="M46.5267 60.6115L49.481 71.9222H43.5723L46.5267 60.6115Z" fill="#231F20"/>
<path id="Shape_9" fill-rule="evenodd" clip-rule="evenodd" d="M43.573 72.2391H49.4817C49.5674 72.2338 49.6464 72.1909 49.6978 72.1217C49.7548 72.0511 49.7744 71.9571 49.7503 71.8693L46.7959 60.5587C46.7587 60.4277 46.6396 60.3373 46.504 60.3373C46.3684 60.3373 46.2493 60.4277 46.2121 60.5587L43.2927 71.8693C43.2689 71.9562 43.2861 72.0493 43.3394 72.1217C43.3957 72.1942 43.4815 72.2374 43.573 72.2391ZM49.1197 71.6522H43.9525L46.5449 61.7854L49.1197 71.6522Z" fill="#231F20"/>
<path id="Path_83" d="M44.6348 71.9222L44.7574 90.7752L45.8842 93.7922V131.117H49.5101V93.4107L48.6284 91.4326V71.9222H44.6348Z" fill="#E7816B"/>
<path id="Shape_10" fill-rule="evenodd" clip-rule="evenodd" d="M45.8843 131.387H49.5102C49.6549 131.381 49.77 131.262 49.7729 131.117V93.4107C49.7789 93.3757 49.7789 93.34 49.7729 93.305L48.9146 91.3739V71.9222C48.9146 71.7731 48.7944 71.6522 48.646 71.6522H44.6524C44.5826 71.6522 44.5156 71.6796 44.4655 71.7285C44.4139 71.7797 44.3845 71.8493 44.3838 71.9222L44.5122 90.7752C44.5067 90.8063 44.5067 90.8381 44.5122 90.8691L45.6158 93.8391V131.117C45.6189 131.265 45.7373 131.384 45.8843 131.387ZM49.2416 130.847H46.1529L46.1588 93.7863C46.1638 93.7552 46.1638 93.7235 46.1588 93.6924L45.0494 90.7224L44.9268 72.1863H48.3833V91.4326C48.3779 91.4696 48.3779 91.5072 48.3833 91.5441L49.2416 93.4693V130.847Z" fill="#231F20"/>
<path id="Path_84" d="M48.6292 84.442H44.7173C44.6129 84.4575 44.5092 84.4103 44.452 84.3212C44.3949 84.2321 44.3949 84.1176 44.452 84.0286C44.5092 83.9395 44.6129 83.8922 44.7173 83.9078H48.6292C48.7335 83.8922 48.8372 83.9395 48.8944 84.0286C48.9516 84.1176 48.9516 84.2321 48.8944 84.3212C48.8372 84.4103 48.7335 84.4575 48.6292 84.442Z" fill="#231F20"/>
<path id="Path_85" d="M49.5101 94.0563H45.8842C45.7799 94.0719 45.6762 94.0247 45.619 93.9356C45.5619 93.8465 45.5619 93.732 45.619 93.6429C45.6762 93.5538 45.7799 93.5066 45.8842 93.5222H49.5101C49.6144 93.5066 49.7181 93.5538 49.7753 93.6429C49.8324 93.732 49.8324 93.8465 49.7753 93.9356C49.7181 94.0247 49.6144 94.0719 49.5101 94.0563Z" fill="#231F20"/>
<path id="Path_86" d="M63.0276 60.6115L60.0732 71.9222H65.982L63.0276 60.6115Z" fill="#231F20"/>
<path id="Shape_11" fill-rule="evenodd" clip-rule="evenodd" d="M59.8449 72.1217C59.8987 72.194 59.9827 72.2373 60.0726 72.2391H65.9813C66.0789 72.2429 66.1724 72.1992 66.2324 72.1217C66.2869 72.0499 66.3062 71.9571 66.285 71.8693L63.3306 60.5587C63.2933 60.4277 63.1742 60.3373 63.0386 60.3373C62.9031 60.3373 62.7839 60.4277 62.7467 60.5587L59.7923 71.8693C59.7683 71.9571 59.7878 72.0511 59.8449 72.1217ZM63.027 61.7854L65.6018 71.6522H60.4521L63.027 61.7854Z" fill="#231F20"/>
<path id="Path_87" d="M64.9193 71.9222L64.7967 90.7752L63.6698 93.7922V131.117H60.0439V93.4107L60.9256 91.4326V71.9222H64.9193Z" fill="#E7816B"/>
<path id="Shape_12" fill-rule="evenodd" clip-rule="evenodd" d="M60.0436 131.387H63.6694C63.8119 131.378 63.9236 131.26 63.9263 131.117V93.8391L65.0357 90.8691C65.0385 90.8379 65.0385 90.8065 65.0357 90.7752L65.1641 71.9222C65.1675 71.8496 65.1403 71.7789 65.0892 71.7275C65.038 71.6762 64.9678 71.6488 64.8956 71.6522H60.9019C60.7535 71.6522 60.6333 71.7731 60.6333 71.9222V91.3739L59.775 93.305C59.769 93.34 59.769 93.3757 59.775 93.4107V131.117C59.7781 131.265 59.8966 131.384 60.0436 131.387ZM63.4008 130.847H60.3122L60.318 93.4693L61.1763 91.5441C61.1846 91.5074 61.1846 91.4693 61.1763 91.4326V72.1863H64.6328L64.5102 90.7224L63.4008 93.6924C63.3958 93.7235 63.3958 93.7552 63.4008 93.7863V130.847Z" fill="#231F20"/>
<path id="Path_88" d="M64.8372 84.442H60.9253C60.8209 84.4575 60.7172 84.4103 60.6601 84.3212C60.6029 84.2321 60.6029 84.1176 60.6601 84.0286C60.7172 83.9395 60.8209 83.8922 60.9253 83.9078H64.8372C64.9415 83.8922 65.0452 83.9395 65.1024 84.0286C65.1596 84.1176 65.1596 84.2321 65.1024 84.3212C65.0452 84.4103 64.9415 84.4575 64.8372 84.442Z" fill="#231F20"/>
<path id="Path_89" d="M63.6693 94.0563H60.0434C59.9391 94.0719 59.8354 94.0247 59.7782 93.9356C59.7211 93.8465 59.7211 93.732 59.7782 93.6429C59.8354 93.5538 59.9391 93.5066 60.0434 93.5222H63.6693C63.7736 93.5066 63.8773 93.5538 63.9345 93.6429C63.9916 93.732 63.9916 93.8465 63.9345 93.9356C63.8773 94.0247 63.7736 94.0719 63.6693 94.0563Z" fill="#231F20"/>
<path id="Path_90" d="M46.5273 61.3452C46.379 61.3452 46.2587 61.2243 46.2587 61.0752V58.4398C46.2587 58.2907 46.379 58.1698 46.5273 58.1698C46.6756 58.1698 46.7959 58.2907 46.7959 58.4398V61.087C46.7896 61.2315 46.6712 61.3454 46.5273 61.3452Z" fill="#231F20"/>
<path id="Path_91" d="M63.0273 61.3452C62.9566 61.3452 62.8889 61.3166 62.8394 61.2658C62.79 61.215 62.763 61.1463 62.7646 61.0752V58.4398C62.749 58.3349 62.796 58.2306 62.8847 58.1732C62.9733 58.1157 63.0872 58.1157 63.1758 58.1732C63.2644 58.2306 63.3114 58.3349 63.2959 58.4398V61.087C63.2943 61.157 63.2652 61.2236 63.2148 61.272C63.1644 61.3205 63.097 61.3468 63.0273 61.3452Z" fill="#231F20"/>
<rect id="Rectangle_4" x="41.8271" y="131.117" width="25.8772" height="19.5339" fill="#E7816B"/>
<path id="Shape_13" fill-rule="evenodd" clip-rule="evenodd" d="M41.8272 150.891H67.7102C67.8478 150.892 67.9638 150.788 67.9788 150.651V131.117C67.9757 130.969 67.8572 130.85 67.7102 130.847H41.8272C41.6811 130.85 41.5644 130.97 41.5645 131.117V150.627C41.5645 150.773 41.6821 150.891 41.8272 150.891ZM67.4591 150.381H42.1133V131.387H67.4591V150.381Z" fill="#231F20"/>
<path id="Path_92" d="M55.7577 81.2137H53.79V74.8511C53.79 74.3052 54.7709 73.4248 54.7709 73.4248C54.7709 73.4248 55.7518 74.3052 55.7518 74.8511L55.7577 81.2137Z" fill="#231F20"/>
<path id="Shape_14" fill-rule="evenodd" clip-rule="evenodd" d="M53.79 81.5072H55.7576C55.9166 81.504 56.0438 81.3735 56.0437 81.2137V74.8511C56.0437 74.2054 55.1446 73.3661 54.9636 73.2076C54.8544 73.1076 54.6874 73.1076 54.5782 73.2076C54.3972 73.3661 53.498 74.2054 53.498 74.8511V81.2137C53.498 81.3758 53.6288 81.5072 53.79 81.5072ZM55.4657 80.9202H54.0878V74.8511C54.2206 74.4539 54.4588 74.1008 54.7767 73.8298C55.0946 74.1008 55.3328 74.4539 55.4657 74.8511V80.9202Z" fill="#231F20"/>
<rect id="Rectangle_5" x="10.3213" y="132.12" width="31.5057" height="2.67065" fill="white"/>
<path id="Shape_15" fill-rule="evenodd" clip-rule="evenodd" d="M10.2979 135.043H41.8269C41.8966 135.045 41.9641 135.019 42.0144 134.97C42.0648 134.922 42.094 134.855 42.0955 134.785V132.109C42.0955 132.038 42.067 131.97 42.0165 131.92C41.966 131.87 41.8976 131.843 41.8269 131.845H10.2979C10.2282 131.845 10.1614 131.872 10.1121 131.922C10.0628 131.971 10.0352 132.039 10.0352 132.109V134.779C10.0352 134.925 10.1528 135.043 10.2979 135.043ZM41.5642 134.527H10.584V132.39H41.5642V134.527Z" fill="#231F20"/>
<rect id="Rectangle_6" x="10.3213" y="134.797" width="31.5057" height="15.8537" fill="white"/>
<path id="Shape_16" fill-rule="evenodd" clip-rule="evenodd" d="M10.298 150.891H41.8271C41.8977 150.893 41.9661 150.866 42.0166 150.816C42.0672 150.766 42.0957 150.698 42.0956 150.627V134.779C42.0972 134.707 42.0695 134.638 42.0187 134.587C41.968 134.536 41.8988 134.508 41.8271 134.509H10.298C10.2273 134.509 10.1596 134.538 10.1101 134.589C10.0607 134.64 10.0337 134.708 10.0353 134.779V150.627C10.0353 150.773 10.1529 150.891 10.298 150.891ZM41.5643 150.381H10.5841V135.043H41.5643V150.381Z" fill="#231F20"/>
<path id="Path_93" d="M40.9452 132.39C40.8735 132.392 40.8043 132.364 40.7536 132.313C40.7028 132.262 40.6751 132.193 40.6767 132.12V100.724C40.6612 100.619 40.7081 100.515 40.7968 100.458C40.8854 100.4 40.9993 100.4 41.0879 100.458C41.1765 100.515 41.2235 100.619 41.208 100.724V132.109C41.2128 132.182 41.1873 132.254 41.1375 132.307C41.0877 132.36 41.0181 132.391 40.9452 132.39Z" fill="#231F20"/>
<path id="Path_94" d="M190.679 132.109V116.431C171.995 113.303 153.312 90.3937 153.312 90.3937L154.339 94.9074C154.339 94.9074 173.367 116.525 190.691 118.538" fill="#231F20"/>
<path id="Shape_17" fill-rule="evenodd" clip-rule="evenodd" d="M190.387 132.12C190.387 132.283 190.517 132.414 190.679 132.414C190.763 132.423 190.847 132.394 190.909 132.335C190.97 132.277 191.004 132.194 191 132.109V118.509V116.408C190.999 116.263 190.896 116.14 190.755 116.114C172.57 113.074 154.106 90.85 153.567 90.2011C153.561 90.1947 153.558 90.1904 153.556 90.1883C153.47 90.0822 153.323 90.0484 153.2 90.1061C153.083 90.1703 153.022 90.3036 153.048 90.4348L154.041 94.972C154.051 95.021 154.075 95.066 154.111 95.1011C154.298 95.3183 173.215 116.613 190.387 118.797V132.12ZM190.387 118.204C173.863 116.055 155.676 95.9756 154.595 94.7665L153.848 91.4913C157.567 95.7761 174.038 113.79 190.387 116.678V118.204Z" fill="#231F20"/>
<path id="Path_95" d="M185.027 132.39C184.955 132.392 184.886 132.364 184.835 132.313C184.785 132.262 184.757 132.193 184.758 132.12V117.247C184.778 117.115 184.891 117.017 185.024 117.017C185.157 117.017 185.27 117.115 185.29 117.247V132.109C185.295 132.182 185.269 132.254 185.219 132.307C185.169 132.36 185.1 132.391 185.027 132.39Z" fill="#231F20"/>
<path id="Path_96" d="M178.984 132.39C178.915 132.386 178.85 132.354 178.804 132.301C178.758 132.248 178.734 132.179 178.739 132.109V114.682C178.759 114.55 178.872 114.452 179.005 114.452C179.138 114.452 179.251 114.55 179.27 114.682V132.109C179.276 132.186 179.247 132.262 179.192 132.316C179.137 132.37 179.061 132.398 178.984 132.39Z" fill="#231F20"/>
<path id="Path_97" d="M172.673 132.39C172.601 132.39 172.533 132.362 172.483 132.311C172.432 132.261 172.404 132.192 172.404 132.12V110.978C172.404 110.829 172.524 110.708 172.673 110.708C172.821 110.708 172.941 110.829 172.941 110.978V132.109C172.944 132.182 172.918 132.254 172.867 132.307C172.816 132.36 172.746 132.39 172.673 132.39Z" fill="#231F20"/>
<path id="Path_98" d="M166.361 132.39C166.289 132.392 166.22 132.364 166.169 132.313C166.119 132.262 166.091 132.193 166.092 132.12V106.283C166.112 106.15 166.225 106.052 166.358 106.052C166.491 106.052 166.604 106.15 166.624 106.283V132.109C166.629 132.182 166.603 132.254 166.553 132.307C166.503 132.36 166.434 132.391 166.361 132.39Z" fill="#231F20"/>
<path id="Path_99" d="M146.223 53.2863C146.077 53.2863 145.957 53.169 145.954 53.0222V47.6926C145.954 47.5435 146.074 47.4226 146.223 47.4226C146.371 47.4226 146.491 47.5435 146.491 47.6926V53.0222C146.488 53.169 146.369 53.2863 146.223 53.2863Z" fill="#231F20"/>
<path id="Path_100" d="M146.97 54.4309H145.469L138.994 81.2196H153.451L146.97 54.4309Z" fill="#231F20"/>
<path id="Shape_18" fill-rule="evenodd" clip-rule="evenodd" d="M138.995 81.5072H153.446C153.536 81.5077 153.622 81.4666 153.679 81.3957C153.733 81.326 153.753 81.2351 153.732 81.1491L147.256 54.3663C147.224 54.2332 147.107 54.1389 146.97 54.1374H145.47C145.334 54.1373 145.217 54.2329 145.19 54.3663L138.714 81.1491C138.693 81.2351 138.713 81.326 138.767 81.3957C138.823 81.465 138.906 81.5059 138.995 81.5072ZM153.078 80.9202H139.368L145.703 54.7243H146.743L153.078 80.9202Z" fill="#231F20"/>
<rect id="Rectangle_7" x="146.965" y="54.4367" width="1.48887" height="2.00739" transform="rotate(-180 146.965 54.4367)" fill="#231F20"/>
<path id="Shape_19" fill-rule="evenodd" clip-rule="evenodd" d="M145.458 54.7243H146.964C147.116 54.7121 147.233 54.5842 147.233 54.4309V52.4235C147.233 52.2614 147.102 52.13 146.941 52.13H145.458C145.297 52.13 145.166 52.2614 145.166 52.4235V54.4309C145.166 54.593 145.297 54.7243 145.458 54.7243ZM146.696 54.1374H145.797V52.717H146.696V54.1374Z" fill="#231F20"/>
<path id="Path_101" d="M143.064 80.3391V73.9941L146.223 68.6528L149.382 73.9941V80.3391H152.418V131.117H140.028V80.3391H143.064Z" fill="#E7816B"/>
<path id="Shape_20" fill-rule="evenodd" clip-rule="evenodd" d="M140.028 131.387H152.412C152.558 131.387 152.678 131.269 152.681 131.123V80.345C152.681 80.2739 152.652 80.2058 152.602 80.1561C152.551 80.1064 152.483 80.0793 152.412 80.0809H149.645V74C149.645 73.9527 149.633 73.9061 149.61 73.865L146.451 68.5237C146.4 68.4475 146.315 68.4018 146.223 68.4018C146.132 68.4018 146.047 68.4475 145.996 68.5237L142.837 73.865C142.814 73.9061 142.801 73.9527 142.802 74V80.075H140.028C139.883 80.075 139.766 80.1933 139.766 80.3391V131.117C139.766 131.264 139.882 131.384 140.028 131.387ZM152.15 130.847H140.297V80.6091H143.064C143.212 80.606 143.33 80.4869 143.333 80.3391V74.0646L146.223 69.1752L149.113 74.0646V80.3391C149.113 80.4882 149.234 80.6091 149.382 80.6091H152.15V130.847Z" fill="#231F20"/>
<path id="Path_102" d="M152.412 85.2578H140.028C139.896 85.2382 139.799 85.1245 139.799 84.9908C139.799 84.857 139.896 84.7434 140.028 84.7237H152.412C152.516 84.7081 152.62 84.7553 152.677 84.8444C152.734 84.9335 152.734 85.048 152.677 85.1371C152.62 85.2262 152.516 85.2734 152.412 85.2578Z" fill="#231F20"/>
<path id="Path_103" d="M148.412 94.9367H150.368V88.5741C150.368 88.0283 149.387 87.1478 149.387 87.1478C149.387 87.1478 148.412 88.0283 148.412 88.5741V94.9367Z" fill="#231F20"/>
<path id="Path_104" d="M145.242 94.9367H147.21V88.5741C147.21 88.0283 146.229 87.1478 146.229 87.1478C146.229 87.1478 145.248 88.0283 145.248 88.5741L145.242 94.9367Z" fill="#231F20"/>
<path id="Path_105" d="M142.077 94.9367H144.033V88.5741C144.033 88.0283 143.058 87.1478 143.058 87.1478C143.058 87.1478 142.077 88.0283 142.077 88.5741V94.9367Z" fill="#231F20"/>
<path id="Path_106" d="M148.412 106.87H150.368V100.478C150.368 99.9376 149.387 99.0513 149.387 99.0513C149.387 99.0513 148.412 99.9376 148.412 100.478V106.87Z" fill="#231F20"/>
<path id="Path_107" d="M145.242 106.87H147.21V100.478C147.21 99.9376 146.229 99.0513 146.229 99.0513C146.229 99.0513 145.248 99.9376 145.248 100.478L145.242 106.87Z" fill="#231F20"/>
<path id="Path_108" d="M142.077 106.87H144.033V100.478C144.033 99.9376 143.058 99.0513 143.058 99.0513C143.058 99.0513 142.077 99.9376 142.077 100.478V106.87Z" fill="#231F20"/>
<path id="Path_109" d="M148.412 118.755H150.368V112.387C150.368 111.841 149.387 110.961 149.387 110.961C149.387 110.961 148.412 111.841 148.412 112.387V118.755Z" fill="#231F20"/>
<path id="Path_110" d="M145.242 118.755H147.21V112.387C147.21 111.841 146.229 110.961 146.229 110.961C146.229 110.961 145.248 111.841 145.248 112.387L145.242 118.755Z" fill="#231F20"/>
<path id="Path_111" d="M142.077 118.755H144.033V112.387C144.033 111.841 143.058 110.961 143.058 110.961C143.058 110.961 142.077 111.841 142.077 112.387V118.755Z" fill="#231F20"/>
<path id="Path_112" d="M151.489 97.4783H140.98C140.832 97.4751 140.714 97.3561 140.711 97.2083C140.714 97.0614 140.833 96.9441 140.98 96.9441H151.489C151.635 96.9441 151.755 97.0614 151.758 97.2083C151.755 97.3561 151.636 97.4751 151.489 97.4783Z" fill="#231F20"/>
<path id="Path_113" d="M151.49 109.611H140.98C140.876 109.626 140.772 109.579 140.715 109.49C140.658 109.401 140.658 109.286 140.715 109.197C140.772 109.108 140.876 109.061 140.98 109.077H151.49C151.594 109.061 151.698 109.108 151.755 109.197C151.812 109.286 151.812 109.401 151.755 109.49C151.698 109.579 151.594 109.626 151.49 109.611Z" fill="#231F20"/>
<path id="Path_114" d="M151.974 122.271H140.472C140.326 122.271 140.206 122.154 140.203 122.007C140.206 121.859 140.325 121.74 140.472 121.737H151.974C152.121 121.74 152.239 121.859 152.243 122.007C152.239 122.154 152.12 122.271 151.974 122.271Z" fill="#231F20"/>
<path id="Path_115" d="M154.473 60.6115L151.519 71.9222H157.427L154.473 60.6115Z" fill="#231F20"/>
<path id="Shape_21" fill-rule="evenodd" clip-rule="evenodd" d="M151.519 72.2391H157.428C157.527 72.2356 157.619 72.1829 157.673 72.0983C157.726 72.0258 157.743 71.9327 157.72 71.8459L154.8 60.5352C154.763 60.4042 154.644 60.3138 154.508 60.3138C154.373 60.3138 154.254 60.4042 154.216 60.5352L151.239 71.8693C151.215 71.9571 151.234 72.0511 151.291 72.1217C151.345 72.194 151.429 72.2373 151.519 72.2391ZM157.031 71.6522H151.881L154.456 61.7854L157.031 71.6522Z" fill="#231F20"/>
<path id="Path_116" d="M156.365 71.9222L156.242 90.7752L155.115 93.7922V131.117H151.489V93.4107L152.371 91.4326V71.9222H156.365Z" fill="#E7816B"/>
<path id="Shape_22" fill-rule="evenodd" clip-rule="evenodd" d="M151.49 131.387H155.116C155.263 131.384 155.381 131.265 155.384 131.117V93.8391L156.482 90.8691C156.488 90.8381 156.488 90.8063 156.482 90.7752L156.61 71.9222C156.61 71.8493 156.58 71.7797 156.529 71.7285C156.479 71.6796 156.412 71.6522 156.342 71.6522H152.348C152.2 71.6522 152.08 71.7731 152.08 71.9222V91.3739L151.221 93.305C151.215 93.34 151.215 93.3757 151.221 93.4107V131.117C151.224 131.265 151.343 131.384 151.49 131.387ZM154.847 130.847H151.758L151.782 93.4693L152.64 91.5441C152.646 91.5072 152.646 91.4696 152.64 91.4326V72.1863H156.079L155.956 90.7224L154.847 93.6924C154.842 93.7235 154.842 93.7552 154.847 93.7863V130.847Z" fill="#231F20"/>
<path id="Path_117" d="M156.283 84.442H152.372C152.267 84.4575 152.164 84.4103 152.106 84.3212C152.049 84.2321 152.049 84.1176 152.106 84.0286C152.164 83.9395 152.267 83.8922 152.372 83.9078H156.283C156.388 83.8922 156.492 83.9395 156.549 84.0286C156.606 84.1176 156.606 84.2321 156.549 84.3212C156.492 84.4103 156.388 84.4575 156.283 84.442Z" fill="#231F20"/>
<path id="Path_118" d="M155.116 94.0563H151.49C151.385 94.0719 151.282 94.0247 151.225 93.9356C151.167 93.8465 151.167 93.732 151.225 93.6429C151.282 93.5538 151.385 93.5066 151.49 93.5222H155.116C155.22 93.5066 155.324 93.5538 155.381 93.6429C155.438 93.732 155.438 93.8465 155.381 93.9356C155.324 94.0247 155.22 94.0719 155.116 94.0563Z" fill="#231F20"/>
<path id="Path_119" d="M137.973 60.6115L140.927 71.9222H135.019L137.973 60.6115Z" fill="#231F20"/>
<path id="Shape_23" fill-rule="evenodd" clip-rule="evenodd" d="M134.785 72.1217C134.841 72.1942 134.927 72.2374 135.018 72.2391H140.927C141.023 72.2429 141.115 72.199 141.172 72.1217C141.229 72.0511 141.249 71.9571 141.225 71.8693L138.27 60.5587C138.233 60.4277 138.114 60.3373 137.978 60.3373C137.843 60.3373 137.724 60.4277 137.686 60.5587L134.732 71.8693C134.711 71.9571 134.73 72.0499 134.785 72.1217ZM137.973 61.7854L140.547 71.6522H135.398L137.973 61.7854Z" fill="#231F20"/>
<path id="Path_120" d="M136.081 71.9222L136.204 90.7752L137.331 93.7922V131.117H140.956V93.4107L140.075 91.4326V71.9222H136.081Z" fill="#E7816B"/>
<path id="Shape_24" fill-rule="evenodd" clip-rule="evenodd" d="M137.331 131.387H140.957C141.099 131.378 141.211 131.26 141.214 131.117V93.4107C141.22 93.3757 141.22 93.34 141.214 93.305L140.355 91.3739V71.9222C140.355 71.7731 140.235 71.6522 140.087 71.6522H136.093C136.021 71.6488 135.951 71.6762 135.899 71.7275C135.848 71.7789 135.821 71.8496 135.824 71.9222L135.953 90.7752C135.95 90.8065 135.95 90.8379 135.953 90.8691L137.062 93.8391V131.117C137.065 131.265 137.184 131.384 137.331 131.387ZM140.688 130.847H137.599L137.582 93.7863C137.587 93.7552 137.587 93.7235 137.582 93.6924L136.473 90.7224L136.35 72.1863H139.83V91.4326C139.822 91.4693 139.822 91.5074 139.83 91.5441L140.688 93.4693V130.847Z" fill="#231F20"/>
<path id="Path_121" d="M140.075 84.442H136.163C136.058 84.4575 135.955 84.4103 135.897 84.3212C135.84 84.2321 135.84 84.1176 135.897 84.0286C135.955 83.9395 136.058 83.8922 136.163 83.9078H140.075C140.179 83.8922 140.283 83.9395 140.34 84.0286C140.397 84.1176 140.397 84.2321 140.34 84.3212C140.283 84.4103 140.179 84.4575 140.075 84.442Z" fill="#231F20"/>
<path id="Path_122" d="M140.956 94.0563H137.331C137.226 94.0719 137.122 94.0247 137.065 93.9356C137.008 93.8465 137.008 93.732 137.065 93.6429C137.122 93.5538 137.226 93.5066 137.331 93.5222H140.956C141.061 93.5066 141.164 93.5538 141.222 93.6429C141.279 93.732 141.279 93.8465 141.222 93.9356C141.164 94.0247 141.061 94.0719 140.956 94.0563Z" fill="#231F20"/>
<path id="Path_123" d="M154.473 61.3452C154.333 61.3393 154.222 61.227 154.216 61.087V58.4398C154.216 58.2907 154.336 58.1698 154.484 58.1698C154.633 58.1698 154.753 58.2907 154.753 58.4398V61.087C154.75 61.1586 154.719 61.2261 154.666 61.2745C154.613 61.323 154.544 61.3484 154.473 61.3452Z" fill="#231F20"/>
<path id="Path_124" d="M137.973 61.3452C137.901 61.3468 137.832 61.3189 137.781 61.2679C137.73 61.2169 137.702 61.1473 137.704 61.0752V58.4398C137.689 58.3349 137.735 58.2306 137.824 58.1732C137.913 58.1157 138.027 58.1157 138.115 58.1732C138.204 58.2306 138.251 58.3349 138.235 58.4398V61.087C138.232 61.2305 138.115 61.3453 137.973 61.3452Z" fill="#231F20"/>
<rect id="Rectangle_8" x="133.29" y="131.117" width="25.8772" height="19.5339" fill="#E7816B"/>
<path id="Shape_25" fill-rule="evenodd" clip-rule="evenodd" d="M133.29 150.891H159.173C159.31 150.892 159.424 150.787 159.436 150.651V131.117C159.436 130.97 159.319 130.85 159.173 130.847H133.29C133.143 130.85 133.025 130.969 133.021 131.117V150.627C133.025 150.774 133.144 150.891 133.29 150.891ZM158.887 150.357H133.559V131.387H158.887V150.357Z" fill="#231F20"/>
<path id="Path_125" d="M145.242 81.2137H147.21V74.8511C147.21 74.3052 146.229 73.4248 146.229 73.4248C146.229 73.4248 145.248 74.3052 145.248 74.8511L145.242 81.2137Z" fill="#231F20"/>
<rect id="Rectangle_9" x="190.673" y="134.797" width="31.5057" height="2.67065" transform="rotate(-180 190.673 134.797)" fill="white"/>
<path id="Shape_26" fill-rule="evenodd" clip-rule="evenodd" d="M159.149 135.043H190.678C190.821 135.044 190.938 134.929 190.941 134.785V132.109C190.941 131.963 190.824 131.845 190.678 131.845H159.149C159.079 131.843 159.01 131.87 158.96 131.92C158.909 131.97 158.881 132.038 158.881 132.109V134.779C158.881 134.85 158.909 134.919 158.96 134.968C159.01 135.018 159.079 135.045 159.149 135.043ZM190.416 134.509H159.436V132.373H190.416V134.509Z" fill="#231F20"/>
<rect id="Rectangle_10" x="190.673" y="150.645" width="31.5057" height="15.8537" transform="rotate(-180 190.673 150.645)" fill="white"/>
<path id="Shape_27" fill-rule="evenodd" clip-rule="evenodd" d="M159.15 150.891H190.679C190.824 150.891 190.941 150.773 190.941 150.627V134.779C190.943 134.708 190.916 134.64 190.866 134.589C190.817 134.538 190.749 134.509 190.679 134.509H159.15C159.078 134.508 159.009 134.536 158.958 134.587C158.907 134.638 158.879 134.707 158.881 134.779V150.627C158.881 150.698 158.909 150.766 158.96 150.816C159.011 150.866 159.079 150.893 159.15 150.891ZM190.416 150.357H159.436V135.043H190.416V150.357Z" fill="#231F20"/>
<path id="Path_126" d="M160.055 132.39C159.984 132.39 159.916 132.362 159.867 132.311C159.817 132.26 159.79 132.191 159.792 132.12V100.724C159.776 100.619 159.823 100.515 159.912 100.458C160.001 100.4 160.114 100.4 160.203 100.458C160.292 100.515 160.339 100.619 160.323 100.724V132.109C160.328 132.183 160.302 132.256 160.251 132.309C160.2 132.363 160.128 132.392 160.055 132.39Z" fill="#231F20"/>
<path id="Path_127" d="M74.2842 151.478C74.1264 151.475 73.9984 151.349 73.9922 151.191C73.9907 151.113 74.02 151.038 74.0736 150.981C74.1273 150.925 74.2009 150.893 74.2783 150.891C77.3508 150.792 80.2298 149.36 82.1723 146.965C82.2244 146.9 82.3002 146.86 82.3825 146.853C82.4648 146.847 82.5456 146.877 82.6043 146.935C84.079 148.467 86.0058 149.48 88.0986 149.823C90.1844 150.137 92.2863 149.366 93.6804 147.775C93.778 147.654 93.952 147.631 94.0774 147.722C97.4755 149.972 102.025 149.204 104.505 145.961C104.563 145.889 104.65 145.847 104.742 145.847C104.834 145.847 104.921 145.889 104.978 145.961C107.413 149.4 112.761 150.328 116.2 147.91C116.322 147.82 116.492 147.843 116.586 147.962C117.487 148.984 118.777 149.573 120.136 149.582C121.492 149.659 122.816 149.143 123.767 148.168C123.833 148.101 123.926 148.069 124.018 148.08C124.109 148.093 124.189 148.147 124.234 148.227C124.616 148.825 125.22 149.244 125.912 149.39C126.604 149.536 127.325 149.396 127.913 149.001C128.043 148.907 128.223 148.933 128.321 149.06C128.367 149.123 128.386 149.202 128.374 149.279C128.362 149.356 128.32 149.425 128.257 149.471C127.544 149.982 126.647 150.162 125.793 149.964C125.059 149.819 124.401 149.415 123.937 148.825C121.71 150.707 118.426 150.583 116.346 148.538C112.767 150.885 107.425 149.976 104.774 146.618C102.093 149.792 97.5096 150.522 93.984 148.338C92.454 149.944 90.2471 150.709 88.0577 150.392C85.9422 150.058 83.9829 149.069 82.4525 147.563C80.402 149.963 77.4413 151.384 74.2959 151.478H74.2842Z" fill="#D1D3D4"/>
<path id="Path_128" d="M115.751 154.067C114.617 154.104 113.517 153.681 112.697 152.893C110.216 154.687 106.779 154.254 104.815 151.901C102.613 153.38 99.9461 153.992 97.3237 153.621C97.2194 153.605 97.1314 153.534 97.0928 153.436C97.0542 153.337 97.0708 153.225 97.1365 153.142C97.2022 153.059 97.307 153.018 97.4113 153.034C99.9786 153.407 102.591 152.777 104.71 151.273C104.774 151.227 104.854 151.208 104.932 151.22C105.008 151.236 105.077 151.28 105.124 151.343C105.98 152.462 107.245 153.191 108.638 153.366C110.031 153.541 111.436 153.149 112.539 152.277C112.599 152.224 112.677 152.199 112.755 152.206C112.833 152.213 112.904 152.251 112.954 152.312C113.783 153.209 114.993 153.647 116.2 153.486C117.448 153.291 118.657 152.894 119.779 152.312C119.851 152.28 119.931 152.279 120.004 152.307C120.076 152.336 120.134 152.393 120.165 152.464C120.23 152.612 120.165 152.785 120.019 152.852C118.836 153.447 117.563 153.843 116.253 154.026C116.086 154.048 115.919 154.062 115.751 154.067Z" fill="#D1D3D4"/>
<path id="Path_129" d="M81.5768 154.601C81.4325 154.599 81.3109 154.492 81.2907 154.348C81.2696 154.189 81.378 154.041 81.5359 154.014C82.7371 153.829 83.8392 153.236 84.6597 152.335C84.7133 152.279 84.7864 152.245 84.864 152.241C84.9425 152.237 85.0191 152.267 85.0742 152.323C85.6729 152.951 86.4736 153.344 87.3338 153.433C88.169 153.517 88.9863 153.151 89.4824 152.47C89.5355 152.389 89.6255 152.341 89.7218 152.341C89.8166 152.348 89.9049 152.392 89.967 152.464C90.5426 153.252 91.5721 153.552 92.4777 153.198C92.5745 153.152 92.6885 153.163 92.7747 153.227C92.861 153.291 92.9057 153.397 92.8912 153.503C92.8767 153.61 92.8054 153.7 92.7054 153.738C91.6765 154.14 90.5086 153.888 89.7335 153.098C89.0965 153.755 88.2022 154.092 87.2929 154.02C86.3964 153.934 85.5521 153.557 84.8874 152.946C83.9995 153.828 82.8572 154.405 81.6235 154.595L81.5768 154.601Z" fill="#D1D3D4"/>
</g>
</g>
</g>
<defs>
<linearGradient id="paint0_linear_0_9353" x1="0" y1="202" x2="202" y2="202" gradientUnits="userSpaceOnUse">
<stop stop-color="#5D0202" stop-opacity="0.01"/>
<stop offset="1" stop-color="#5D0202" stop-opacity="0.497569"/>
</linearGradient>
</defs>
</svg>
