<svg width="202" height="202" viewBox="0 0 202 202" fill="none" xmlns="http://www.w3.org/2000/svg">
<g id="Group 15">
<circle id="Oval Copy 3" opacity="0.202683" cx="101" cy="101" r="101" transform="matrix(-1 0 0 1 202 0)" fill="url(#paint0_linear_0_9595)"/>
<g id="sydney__flatline 2">
<g id="sydney__flatline">
<path id="Path" d="M163.347 100.866H177.883C177.883 100.866 187.421 120.536 189.299 128.964H163.347V100.866Z" fill="#E7816B"/>
<path id="Shape" fill-rule="evenodd" clip-rule="evenodd" d="M163.346 129.231H189.299C189.38 129.232 189.458 129.196 189.509 129.133C189.558 129.068 189.577 128.986 189.561 128.906C187.695 120.513 178.221 100.948 178.122 100.75C178.08 100.657 177.986 100.597 177.883 100.599H163.346C163.198 100.599 163.078 100.719 163.078 100.866V128.964C163.078 129.112 163.198 129.231 163.346 129.231ZM188.966 128.702H163.632L163.615 101.128H177.714C178.589 102.947 187.041 120.623 188.966 128.702Z" fill="#231F20"/>
<path id="Path_2" d="M164.321 122.477L175.666 127.494C175.666 127.494 165.691 84.481 146.208 65.0673C146.208 65.0673 139.401 70.2985 134.489 83.8707C133.241 87.3175 134.302 85.1494 134.221 85.7307L132.896 95.1063L164.321 122.477Z" fill="#E7816B"/>
<path id="Shape_2" fill-rule="evenodd" clip-rule="evenodd" d="M175.562 127.761C175.597 127.766 175.632 127.766 175.667 127.761C175.731 127.76 175.792 127.738 175.842 127.697C175.918 127.633 175.952 127.532 175.929 127.435C175.83 127.005 165.709 84.1497 146.395 64.8812C146.295 64.7924 146.145 64.7924 146.045 64.8812C145.975 64.9336 139.121 70.3159 134.238 83.8009C133.463 85.9503 133.533 85.9922 133.754 86.1257L133.754 86.1259C133.797 86.1517 133.845 86.1676 133.894 86.1724L132.611 95.0597C132.598 95.15 132.634 95.2402 132.704 95.2981L164.128 122.698C164.146 122.717 164.168 122.731 164.193 122.739L175.562 127.761ZM175.299 127.034L164.467 122.251L133.177 94.9435L134.501 85.7423C134.545 85.5935 134.48 85.434 134.343 85.3587H134.273C134.304 85.2721 134.343 85.157 134.391 85.0136C134.478 84.7528 134.596 84.3984 134.758 83.9521C139.138 71.8156 145.1 66.3634 146.208 65.4218C164.152 83.5103 174.086 122.094 175.299 127.034Z" fill="#231F20"/>
<path id="Path_3" d="M134.775 91.5664C134.775 91.5664 137.884 76.9073 146.343 68.7466C146.343 68.7466 159.374 79.7903 171.974 124.012L131.013 121.739C131.013 121.739 131.818 99.2622 134.775 91.5664Z" fill="#231F20"/>
<path id="Shape_3" fill-rule="evenodd" clip-rule="evenodd" d="M131.013 122.03L171.975 124.302C172.07 124.328 172.172 124.302 172.243 124.233C172.303 124.16 172.323 124.062 172.295 123.971C159.812 80.1449 146.705 68.671 146.57 68.5606C146.461 68.458 146.29 68.458 146.18 68.5606C137.885 76.5411 134.659 90.8399 134.513 91.5025C131.598 99.1011 130.785 120.523 130.74 121.707L130.739 121.728C130.732 121.886 130.854 122.02 131.013 122.03ZM171.584 123.704L131.334 121.466C131.421 118.833 132.325 98.7681 135.061 91.6711V91.6246C135.09 91.4793 138.182 77.1921 146.349 69.1476C147.119 69.88 150.129 72.949 154.212 79.9879C158.581 87.4861 165.126 101.145 171.584 123.704Z" fill="#231F20"/>
<path id="Path_4" d="M120.991 104.214C120.991 104.214 127.851 89.9448 136.368 81.6619C136.368 81.6619 147.119 90.0668 154.119 99.0646C161.119 108.062 167.535 124.012 167.535 124.012H121.615L120.991 104.214Z" fill="white"/>
<path id="Shape_4" fill-rule="evenodd" clip-rule="evenodd" d="M121.615 124.302H167.541L167.511 124.279C167.608 124.28 167.699 124.233 167.753 124.154C167.808 124.075 167.82 123.974 167.786 123.884C167.739 123.744 161.264 107.795 154.322 98.8902C147.602 90.2691 137.305 82.0783 136.561 81.4862C136.536 81.4667 136.522 81.4555 136.519 81.4527C136.409 81.3563 136.244 81.3563 136.134 81.4527C127.85 89.5298 121.018 103.437 120.709 104.066C120.704 104.077 120.7 104.084 120.699 104.087C120.69 104.131 120.69 104.176 120.699 104.22L121.323 124.023C121.329 124.179 121.458 124.303 121.615 124.302ZM167.109 123.721H121.895L121.288 104.278C121.298 104.259 121.31 104.234 121.325 104.206C122.06 102.736 128.535 89.7934 136.391 82.0456C137.896 83.2488 147.515 91.0491 153.891 99.2448C160.109 107.272 166.053 121.193 167.109 123.721Z" fill="#231F20"/>
<path id="Path_5" d="M136.251 84.5042C136.251 84.5042 126.976 93.223 123.575 105.15C123.575 105.15 163.364 119.153 163.009 118.804C162.653 118.455 157.099 105.894 150.759 98.5414C141.793 88.1312 136.251 84.5042 136.251 84.5042Z" fill="#231F20"/>
<path id="Shape_5" fill-rule="evenodd" clip-rule="evenodd" d="M143.152 112.323C159.66 118.083 162.495 119.054 163.079 119.054C163.201 119.054 163.23 119.013 163.254 118.961C163.33 118.853 163.317 118.706 163.224 118.612C163.149 118.513 162.816 117.845 162.431 117.066L162.413 117.03C160.49 113.168 156.028 104.208 150.992 98.3496C142.09 88.0034 136.467 84.3008 136.409 84.2659C136.296 84.1906 136.146 84.2027 136.047 84.295C135.954 84.3822 126.679 93.1998 123.295 105.069C123.249 105.216 123.329 105.374 123.476 105.423C123.476 105.423 133.305 108.882 143.152 112.323ZM162.431 118.356C158.389 117.083 136.181 109.306 123.931 104.988C127.075 94.2634 135.026 86.1201 136.292 84.8995C137.342 85.6319 142.639 89.5321 150.566 98.7449C155.558 104.542 159.998 113.473 161.908 117.314L161.924 117.345L162.431 118.356Z" fill="#231F20"/>
<path id="Path_6" d="M126.742 92.0024C126.742 92.0024 145.491 94.8563 156.667 107.621C162.372 114.142 167.541 124.012 167.541 124.012H144.68L126.742 92.0024Z" fill="#E7816B"/>
<path id="Shape_6" fill-rule="evenodd" clip-rule="evenodd" d="M144.68 124.279H167.541C167.637 124.279 167.725 124.225 167.768 124.14C167.815 124.059 167.815 123.959 167.768 123.878L167.765 123.872C167.606 123.571 162.458 113.835 156.854 107.435C145.747 94.7575 126.958 91.7408 126.772 91.7408C126.67 91.7272 126.57 91.7695 126.509 91.8513C126.459 91.9397 126.459 92.0476 126.509 92.1361L144.447 124.146C144.495 124.229 144.584 124.28 144.68 124.279ZM167.097 123.75H144.837L127.25 92.3628C130.412 92.9556 146.547 96.4664 156.463 107.795C161.451 113.491 166.077 121.861 167.097 123.75Z" fill="#231F20"/>
<path id="Path_7" d="M116.593 105.168C120.676 99.1576 123.009 95.3504 126.743 92.0024C133.713 96.1261 140.13 101.114 145.841 106.848C150.844 111.932 155.078 117.714 158.412 124.012H107.376C107.376 124.012 112.813 110.713 116.593 105.168Z" fill="white"/>
<path id="Shape_7" fill-rule="evenodd" clip-rule="evenodd" d="M107.376 124.302H158.411C158.509 124.302 158.6 124.252 158.651 124.169C158.697 124.08 158.697 123.973 158.651 123.884C155.292 117.562 151.039 111.754 146.021 106.638C140.287 100.893 133.849 95.8918 126.859 91.7524C126.753 91.6896 126.617 91.7038 126.526 91.7873C123.312 94.6412 121.125 97.8904 118.103 102.383C117.566 103.209 116.983 104.081 116.353 105.005C112.596 110.509 107.16 123.773 107.107 123.907C107.069 123.995 107.08 124.097 107.136 124.175C107.189 124.255 107.279 124.303 107.376 124.302ZM157.933 123.721H107.813C108.752 121.466 113.477 110.248 116.837 105.33L118.616 102.709C121.562 98.3206 123.709 95.1353 126.783 92.3627C133.651 96.4655 139.984 101.399 145.636 107.051C150.491 112.013 154.629 117.623 157.933 123.721Z" fill="#231F20"/>
<path id="Path_8" d="M109.236 124.012C109.236 124.012 113.197 114.27 118.12 106.516C123.131 98.6286 127.005 94.8563 127.005 94.8563C127.005 94.8563 132.879 97.6347 142.585 107.138C149.218 113.631 155.378 123.994 155.378 123.994L109.236 124.012Z" fill="#231F20"/>
<path id="Shape_8" fill-rule="evenodd" clip-rule="evenodd" d="M109.237 124.302H155.379C155.489 124.311 155.594 124.254 155.647 124.157C155.699 124.067 155.699 123.956 155.647 123.867C155.644 123.862 155.623 123.827 155.584 123.764C154.916 122.667 149.042 113.025 142.814 106.929C133.189 97.501 127.215 94.5948 127.157 94.5948C127.046 94.5437 126.915 94.5643 126.825 94.6471C126.823 94.6488 126.815 94.657 126.8 94.6719C126.462 95.0145 122.663 98.8608 117.9 106.359C113.017 114.026 109.027 123.808 108.992 123.907C108.945 123.99 108.945 124.092 108.992 124.175C109.048 124.255 109.139 124.303 109.237 124.302ZM154.86 123.721H109.675C110.474 121.844 114.073 113.433 118.366 106.673C122.759 99.7563 126.311 95.9781 127.064 95.2109C128.131 95.7689 133.772 98.9134 142.382 107.347C148.14 112.98 153.611 121.681 154.86 123.721Z" fill="#231F20"/>
<path id="Path_9" d="M127.833 127.493H68.2221C68.2221 127.493 65.3813 101.919 66.7871 85.0623C68.1929 68.206 76.9371 55.6626 76.9371 55.6626C76.9371 55.6626 99.0454 61.0799 112.34 82.3536C125.634 103.627 127.833 127.493 127.833 127.493Z" fill="white"/>
<path id="Shape_9" fill-rule="evenodd" clip-rule="evenodd" d="M68.2223 127.784H127.833C127.921 127.793 128.008 127.758 128.066 127.691C128.123 127.632 128.151 127.551 128.142 127.47L128.142 127.469C128.111 127.153 125.776 103.267 112.591 82.1734C99.384 61.045 77.229 55.4069 77.0073 55.3546C76.8898 55.3201 76.7636 55.3676 76.6982 55.4708C76.6107 55.5812 67.884 68.3106 66.4957 85.0099C65.2236 100.311 67.4922 123.053 67.8811 126.952C67.9166 127.308 67.9365 127.507 67.9365 127.528C67.9515 127.674 68.0752 127.785 68.2223 127.784ZM127.53 127.203H68.4848C68.1932 124.471 65.7665 100.803 67.0907 85.0332C68.3973 69.5196 76.0565 57.5168 77.0832 55.9707C79.2823 56.5752 99.6815 62.6144 112.095 82.4815C124.386 102.145 127.203 124.297 127.53 127.203Z" fill="#231F20"/>
<path id="Path_10" d="M127.833 127.493H109.75C109.75 127.493 107.545 104.412 98.6667 83.9346C89.7884 63.4572 76.9551 55.6336 76.9551 55.6336C76.9551 55.6336 99.0634 61.0508 112.358 82.3246C125.652 103.598 127.833 127.493 127.833 127.493Z" fill="#E7816B"/>
<path id="Shape_10" fill-rule="evenodd" clip-rule="evenodd" d="M109.75 127.761H127.833H127.921C127.996 127.761 128.068 127.73 128.119 127.675C128.17 127.619 128.196 127.545 128.189 127.47L128.189 127.468C128.155 127.119 125.825 103.258 112.638 82.1851C99.4192 61.0624 77.2759 55.4301 77.0542 55.3778C76.9262 55.3451 76.7937 55.4124 76.745 55.5347C76.6967 55.6543 76.7409 55.7911 76.85 55.8602C76.8524 55.8619 76.861 55.8675 76.8757 55.8771C77.521 56.2949 89.8786 64.2973 98.4334 84.0451C107.183 104.243 109.488 127.29 109.488 127.523C109.502 127.657 109.615 127.759 109.75 127.761ZM127.542 127.232H109.96C109.698 124.715 107.195 103 98.8767 83.8416C91.7659 67.4097 81.9659 59.0164 78.4134 56.3659C83.675 58.0632 101.047 64.7941 112.095 82.4757C124.433 102.197 127.233 124.442 127.542 127.232Z" fill="#231F20"/>
<path id="Path_11" d="M107.375 127.493C107.375 127.493 103.607 103.011 98.6662 89.875C91.4096 70.6938 77.6662 59.6849 77.6662 59.6849C77.6662 59.6849 71.8329 70.6937 70.5204 79.7729C69.6687 85.7714 68.9687 115.584 70.5787 127.226L107.375 127.493Z" fill="#231F20"/>
<path id="Shape_11" fill-rule="evenodd" clip-rule="evenodd" d="M70.5787 127.517L107.375 127.784C107.462 127.787 107.546 127.751 107.603 127.685C107.661 127.62 107.686 127.533 107.673 127.447C107.671 127.435 107.66 127.366 107.64 127.245C107.256 124.861 103.596 102.154 98.9229 89.7878C91.7187 70.7403 77.9754 59.5861 77.8354 59.4756C77.7698 59.4188 77.6807 59.3971 77.5962 59.4175C77.5115 59.4336 77.4386 59.487 77.3979 59.5628C77.3396 59.65 71.5179 70.6938 70.2287 79.7322C69.4062 85.5505 68.6771 115.607 70.2929 127.267C70.3131 127.409 70.4345 127.515 70.5787 127.517ZM107.037 127.203L70.8354 126.936C69.2721 115.148 69.9896 85.5738 70.8121 79.8252C71.9554 71.74 76.7854 62.0331 77.7479 60.1673C86.8938 68.3479 93.9627 78.5728 98.3746 90.0029C102.954 102.099 106.559 124.204 107.037 127.203Z" fill="#231F20"/>
<path id="Path_12" d="M62.5003 75.7041C62.5003 75.7041 74.7095 77.8141 88.6278 87.4919C112.282 103.941 120.501 127.493 120.501 127.493H58.627C58.627 127.493 60.7503 82.528 62.5003 75.7041Z" fill="#E7816B"/>
<path id="Shape_12" fill-rule="evenodd" clip-rule="evenodd" d="M58.6267 127.761H120.518V127.714C120.605 127.713 120.685 127.671 120.736 127.601C120.786 127.531 120.801 127.442 120.775 127.36C120.773 127.355 120.768 127.342 120.759 127.319C120.341 126.196 111.785 103.234 88.8025 87.2536C74.9775 77.6455 62.675 75.4193 62.5525 75.4193C62.4138 75.3965 62.2803 75.4818 62.2433 75.6169C60.5108 82.3885 58.4283 125.622 58.3408 127.459C58.3403 127.532 58.3674 127.602 58.4167 127.656C58.4674 127.721 58.5445 127.759 58.6267 127.761ZM120.157 127.226H58.9067C59.0875 123.465 61.0825 83.1848 62.7392 76.0064C64.53 76.3668 75.8758 78.9126 88.5167 87.7011C110.24 102.814 118.99 124.227 120.157 127.226Z" fill="#231F20"/>
<path id="Path_13" d="M101.065 127.493C101.065 127.493 99.4545 114.648 88.5753 100.326C77.6962 86.0039 62.5003 75.7041 62.5003 75.7041C62.5003 75.7041 55.9845 84.8065 53.5637 95.6468C51.1428 106.487 52.9803 127.493 52.9803 127.493H101.065Z" fill="white"/>
<path id="Shape_13" fill-rule="evenodd" clip-rule="evenodd" d="M52.9862 127.784H101.065C101.137 127.78 101.206 127.749 101.257 127.697C101.311 127.634 101.336 127.552 101.327 127.47C101.31 127.331 99.5595 114.34 88.7795 100.151C78.0778 86.0662 63.0298 75.7215 62.6635 75.4697C62.6609 75.4679 62.659 75.4666 62.6579 75.4658C62.527 75.3759 62.348 75.4069 62.2554 75.5356C62.2544 75.5369 62.252 75.5403 62.2483 75.5457C61.9979 75.902 55.6168 84.9837 53.2779 95.5829C51.0593 105.636 52.4776 124.602 52.6731 127.217C52.6868 127.4 52.6945 127.503 52.6945 127.517C52.7093 127.667 52.8349 127.782 52.9862 127.784ZM100.703 127.203H53.2545C53.0562 124.75 51.6387 105.726 53.8204 95.6933C56.0137 85.9748 61.5495 77.5932 62.5704 76.0936C64.5479 77.4886 78.3379 87.3582 88.3187 100.506C98.072 113.334 100.359 125.116 100.703 127.203Z" fill="#231F20"/>
<path id="Path_14" d="M98.264 125.756C98.264 125.756 95.0498 112.596 82.059 97.0999C76.5477 90.5537 70.2243 84.7314 63.2406 79.7729C63.2406 79.7729 57.2148 87.6837 55.704 97.7219C54.4673 105.958 54.199 120.722 54.1406 125.756H98.264Z" fill="#231F20"/>
<path id="Shape_14" fill-rule="evenodd" clip-rule="evenodd" d="M54.1404 126.046H98.2637C98.3485 126.043 98.4276 126.003 98.4795 125.936C98.5365 125.866 98.5561 125.773 98.532 125.686C98.5029 125.552 95.1545 112.282 82.2687 96.9139C76.7323 90.3538 70.3903 84.5129 63.392 79.5288C63.2656 79.4421 63.0931 79.4703 63.0012 79.5927C62.9487 79.6566 56.9229 87.6837 55.4179 97.6754C54.1987 105.79 53.9129 120.013 53.8487 125.75C53.8475 125.829 53.8792 125.904 53.9362 125.959C53.9904 126.013 54.0636 126.044 54.1404 126.046ZM97.8787 125.465H54.4379C54.5079 119.559 54.7995 105.702 55.9954 97.7626C57.337 88.8462 62.3362 81.5283 63.3104 80.1681C70.1664 85.0962 76.3886 90.8453 81.837 97.2859C93.4454 111.137 97.2545 123.25 97.8787 125.465Z" fill="#231F20"/>
<path id="Path_15" d="M94.7522 127.494C94.1689 125.209 91.7364 117.345 84.2522 106.016C75.2864 92.4674 62.9956 88.4509 62.9956 88.4509H38.8164V89.3577L55.3364 127.494H94.7522Z" fill="#E7816B"/>
<path id="Shape_15" fill-rule="evenodd" clip-rule="evenodd" d="M55.3366 127.761H94.7524C94.8481 127.765 94.9387 127.718 94.9916 127.639C95.0434 127.575 95.0609 127.491 95.0383 127.412C94.4724 125.232 92.0399 117.258 84.4974 105.854C75.5841 92.3802 63.2291 88.2243 63.1066 88.1836C63.0777 88.1781 63.048 88.1781 63.0191 88.1836H38.8458C38.6999 88.1867 38.5832 88.3055 38.5833 88.4509V89.3577C38.5777 89.3923 38.5777 89.4277 38.5833 89.4623L55.0916 127.598C55.1322 127.697 55.2292 127.762 55.3366 127.761ZM94.3908 127.226H55.4999L39.0849 89.3054V88.7241H62.9374C63.7074 88.9857 75.4558 93.2288 84.0074 106.162C91.1649 116.979 93.6908 124.674 94.3908 127.226Z" fill="#231F20"/>
<path id="Path_16" d="M82.0589 127.494C78.7922 121.844 63.6664 97.6405 38.8164 88.4509C38.8164 88.4509 31.0464 105.022 33.2572 127.494H82.0589Z" fill="white"/>
<path id="Shape_16" fill-rule="evenodd" clip-rule="evenodd" d="M33.2576 127.784H82.0593C82.1629 127.784 82.2583 127.728 82.3101 127.639C82.3622 127.549 82.3622 127.438 82.3101 127.348C79.4751 122.472 64.0576 97.4777 38.9218 88.1777C38.7785 88.1242 38.618 88.1902 38.5543 88.3289C38.5537 88.3302 38.5526 88.3326 38.551 88.336C38.3565 88.7639 30.7901 105.409 32.966 127.523C32.9835 127.67 33.1083 127.782 33.2576 127.784ZM81.5518 127.203H33.526C31.5835 106.667 38.041 90.9503 38.9685 88.8404C63.1068 97.8788 78.1685 121.46 81.5518 127.203Z" fill="#231F20"/>
<path id="Path_17" d="M79.0839 127.493C77.5847 124.692 72.0839 116.781 65.5914 109.574C53.3939 96.0769 39.8139 91.6536 39.8139 91.6536C33.508 108.986 35.7772 122.181 35.8997 127.493H79.0839Z" fill="#231F20"/>
<path id="Shape_17" fill-rule="evenodd" clip-rule="evenodd" d="M35.918 127.784H79.0846V127.796C79.1878 127.796 79.2834 127.742 79.3361 127.654C79.3889 127.565 79.3908 127.456 79.3413 127.366C77.9646 124.797 72.5746 116.88 65.808 109.393C53.698 95.9781 40.0421 91.4211 39.9021 91.3746C39.7529 91.3313 39.5952 91.4098 39.5405 91.5548C34.1971 106.284 35.0138 118.124 35.4571 124.518C35.4725 124.736 35.4881 124.95 35.5033 125.158C35.5687 126.054 35.6263 126.844 35.6263 127.499C35.6263 127.576 35.6572 127.649 35.7121 127.703C35.7669 127.756 35.8412 127.786 35.918 127.784ZM78.5888 127.203H36.1805C36.1588 126.491 36.1021 125.65 36.0381 124.702C36.0331 124.627 36.0281 124.552 36.023 124.477C35.5855 118.182 34.7805 106.51 39.9896 92.0256C41.9496 92.7289 54.293 97.5184 65.3763 109.765C71.7696 116.845 76.9146 124.297 78.5888 127.203Z" fill="#231F20"/>
<path id="Path_18" d="M181.657 127.494L178.863 121.867H88.3766L85.5999 127.494H28.5791V147.366H191.177V127.494H181.657Z" fill="white"/>
<path id="Shape_18" fill-rule="evenodd" clip-rule="evenodd" d="M28.5788 147.657H191.177C191.336 147.654 191.463 147.525 191.463 147.366V127.494C191.463 127.333 191.332 127.203 191.171 127.203H181.838L179.125 121.739C179.075 121.64 178.974 121.578 178.863 121.576H88.3763C88.2647 121.576 88.1628 121.639 88.1138 121.739L85.4188 127.203H28.5788C28.4177 127.203 28.2871 127.333 28.2871 127.494V147.366C28.2871 147.527 28.4177 147.657 28.5788 147.657ZM190.885 147.076H28.8704V127.784H85.5996C85.7108 127.783 85.812 127.72 85.8621 127.621L88.5571 122.158H178.682L181.395 127.621C181.445 127.72 181.546 127.783 181.657 127.784H190.885V147.076Z" fill="#231F20"/>
<rect id="Rectangle" x="68.2227" y="127.493" width="32.8417" height="19.8671" fill="#D1D3D4"/>
<path id="Shape_19" fill-rule="evenodd" clip-rule="evenodd" d="M68.2223 147.657H101.064C101.225 147.657 101.356 147.527 101.356 147.366V127.494C101.356 127.333 101.225 127.203 101.064 127.203H68.2223C68.0626 127.206 67.9338 127.334 67.9307 127.494V147.366C67.9307 147.527 68.0612 147.657 68.2223 147.657ZM100.772 147.076H68.514V127.784H100.772V147.076Z" fill="#231F20"/>
<path id="Path_19" d="M152.503 128.964L174.191 147.366H152.503V128.964Z" fill="#D1D3D4"/>
<path id="Shape_20" fill-rule="evenodd" clip-rule="evenodd" d="M152.503 147.657H174.191C174.313 147.656 174.421 147.58 174.462 147.466C174.504 147.352 174.47 147.224 174.378 147.146L152.689 128.743C152.602 128.673 152.483 128.657 152.38 128.703C152.277 128.749 152.21 128.851 152.211 128.964V147.366C152.211 147.527 152.342 147.657 152.503 147.657ZM173.398 147.076H152.794V129.598L173.398 147.076Z" fill="#231F20"/>
<rect id="Rectangle_2" x="23.8838" y="131.103" width="44.3392" height="1.9995" fill="white"/>
<path id="Shape_21" fill-rule="evenodd" clip-rule="evenodd" d="M23.8893 133.393H68.2227C68.3 133.393 68.3742 133.363 68.4289 133.308C68.4836 133.254 68.5143 133.18 68.5143 133.103V131.103C68.5143 130.943 68.3837 130.812 68.2227 130.812H23.8893C23.7282 130.812 23.5977 130.943 23.5977 131.103V133.103C23.6008 133.262 23.7295 133.39 23.8893 133.393ZM67.9252 132.812H24.1752V131.394H67.9252V132.812Z" fill="#231F20"/>
<rect id="Rectangle_3" x="19.6016" y="136.177" width="48.6267" height="3.52238" fill="white"/>
<path id="Shape_22" fill-rule="evenodd" clip-rule="evenodd" d="M19.6012 139.985H68.2221C68.3832 139.985 68.5137 139.854 68.5137 139.694V136.177C68.5137 136.017 68.3832 135.887 68.2221 135.887H19.6012C19.4402 135.887 19.3096 136.017 19.3096 136.177V139.694C19.3096 139.854 19.4402 139.985 19.6012 139.985ZM67.9304 139.403H19.8929L19.9162 136.468H67.9304V139.403Z" fill="#231F20"/>
<rect id="Rectangle_4" x="19.6016" y="138.276" width="48.6267" height="4.38844" fill="#E7816B"/>
<path id="Shape_23" fill-rule="evenodd" clip-rule="evenodd" d="M19.6013 142.926H68.2222C68.2928 142.927 68.3611 142.9 68.4116 142.851C68.4621 142.802 68.4905 142.735 68.4905 142.664V138.276C68.4905 138.128 68.3704 138.008 68.2222 138.008H19.6013C19.4531 138.008 19.333 138.128 19.333 138.276V142.664C19.333 142.735 19.3614 142.802 19.4119 142.851C19.4624 142.9 19.5307 142.927 19.6013 142.926ZM67.9597 142.397H19.8638V138.543H67.9597V142.397Z" fill="#231F20"/>
<rect id="Rectangle_5" x="23.8838" y="133.103" width="44.3392" height="3.07481" fill="#E7816B"/>
<path id="Shape_24" fill-rule="evenodd" clip-rule="evenodd" d="M23.8896 136.439H68.2229C68.2935 136.44 68.3618 136.414 68.4123 136.364C68.4628 136.315 68.4913 136.248 68.4912 136.177V133.103C68.4929 133.031 68.4651 132.962 68.4144 132.912C68.3638 132.861 68.2946 132.834 68.2229 132.835H23.8896C23.8189 132.835 23.7513 132.864 23.7019 132.914C23.6525 132.964 23.6255 133.032 23.6271 133.103V136.177C23.6271 136.322 23.7446 136.439 23.8896 136.439ZM67.9604 135.91H24.1521V133.364H67.9604V135.91Z" fill="#231F20"/>
<rect id="Rectangle_6" x="28.5791" y="129.307" width="39.6492" height="1.79606" fill="#E7816B"/>
<path id="Shape_25" fill-rule="evenodd" clip-rule="evenodd" d="M28.5554 131.37H68.2221C68.3703 131.37 68.4904 131.251 68.4904 131.103V129.307C68.4904 129.236 68.4622 129.168 68.4118 129.118C68.3615 129.068 68.2933 129.04 68.2221 129.04H28.5554C28.4843 129.04 28.416 129.068 28.3657 129.118C28.3154 129.168 28.2871 129.236 28.2871 129.307V131.103C28.2871 131.251 28.4072 131.37 28.5554 131.37ZM67.9596 130.836H28.8413V129.574H67.9596V130.836Z" fill="#231F20"/>
<path id="Path_20" d="M85.5996 127.494H111.36L113.74 121.867H88.3763L85.5996 127.494Z" fill="#D1D3D4"/>
<path id="Shape_26" fill-rule="evenodd" clip-rule="evenodd" d="M85.5999 127.784H111.36C111.473 127.779 111.573 127.709 111.617 127.604L113.997 121.983C114.043 121.898 114.043 121.795 113.997 121.71C113.943 121.627 113.851 121.577 113.752 121.576H88.3882C88.2767 121.576 88.1748 121.639 88.1257 121.739L85.349 127.366C85.299 127.452 85.299 127.558 85.349 127.645C85.4039 127.73 85.4981 127.783 85.5999 127.784ZM111.15 127.203H86.0665L88.5574 122.158H113.285L111.15 127.203Z" fill="#231F20"/>
<rect id="Rectangle_7" x="119.305" y="124.884" width="38.4825" height="1.73794" fill="#E7816B"/>
<rect id="Rectangle_8" x="169.997" y="133.585" width="16.1875" height="1.27294" fill="#E7816B"/>
<rect id="Rectangle_9" x="10.8223" y="141.06" width="57.4058" height="6.30656" fill="white"/>
<path id="Shape_27" fill-rule="evenodd" clip-rule="evenodd" d="M10.8229 147.657H68.2229C68.384 147.657 68.5146 147.527 68.5146 147.366V141.06C68.5146 140.899 68.384 140.769 68.2229 140.769H10.8229C10.6618 140.769 10.5312 140.899 10.5312 141.06V147.366C10.5312 147.527 10.6618 147.657 10.8229 147.657ZM67.9312 147.076H11.1146V141.351H67.9312V147.076Z" fill="#231F20"/>
<path id="Path_21" d="M181.657 129.231H152.49C152.386 129.247 152.283 129.2 152.225 129.112C152.168 129.024 152.168 128.91 152.225 128.822C152.283 128.734 152.386 128.687 152.49 128.703H181.657C181.761 128.687 181.865 128.734 181.922 128.822C181.979 128.91 181.979 129.024 181.922 129.112C181.865 129.2 181.761 129.247 181.657 129.231Z" fill="#231F20"/>
</g>
</g>
</g>
<defs>
<linearGradient id="paint0_linear_0_9595" x1="0" y1="202" x2="202" y2="202" gradientUnits="userSpaceOnUse">
<stop stop-color="#5D0202" stop-opacity="0.01"/>
<stop offset="1" stop-color="#5D0202" stop-opacity="0.497569"/>
</linearGradient>
</defs>
</svg>
